<?xml version="1.0" encoding="utf-8"?>
<svg version="1.1" xmlns:xlink="http://www.w3.org/1999/xlink" width="21px" height="18px" xmlns="http://www.w3.org/2000/svg">
  <g transform="matrix(1 0 0 1 -203 -91 )">
    <path d="M 9.79372197309417 13.5  L 10.4529147982063 13.5  L 11.8183856502242 12.0170454545455  L 10.0291479820628 10.0738636363636  L 8.66367713004484 11.5568181818182  L 8.66367713004484 12.2727272727273  L 9.79372197309417 12.2727272727273  L 9.79372197309417 13.5  Z M 15.6205156950673 4.71732954545455  C 15.7539237668161 4.57244318181818  15.7578475336323 4.43181818181818  15.6322869955157 4.29545454545455  C 15.5067264573991 4.15909090909091  15.3772421524664 4.16335227272727  15.2438340807175 4.30823863636364  L 11.1238789237668 8.78267045454546  C 10.9904708520179 8.92755681818182  10.9865470852018 9.06818181818182  11.1121076233184 9.20454545454546  C 11.237668161435 9.34090909090909  11.3671524663677 9.33664772727272  11.5005605381166 9.19176136363637  L 15.6205156950673 4.71732954545455  Z M 16.3385650224215 11.5184659090909  C 16.4955156950673 11.5866477272727  16.5739910313901 11.7102272727273  16.5739910313901 11.8892045454545  L 16.5739910313901 14.3181818181818  C 16.5739910313901 15.3323863636364  16.242432735426 16.1995738636364  15.5793161434978 16.9197443181818  C 14.9161995515695 17.6399147727273  14.1177130044843 18  13.1838565022422 18  L 3.39013452914798 18  C 2.45627802690583 18  1.65779147982063 17.6399147727273  0.994674887892377 16.9197443181818  C 0.331558295964126 16.1995738636364  0 15.3323863636364  0 14.3181818181818  L 0 3.68181818181818  C 0 2.66761363636363  0.331558295964126 1.80042613636364  0.994674887892377 1.08025568181818  C 1.65779147982063 0.360085227272726  2.45627802690583 0  3.39013452914798 0  L 13.1838565022422 0  C 13.6782511210762 0  14.137331838565 0.10653409090909  14.5610986547085 0.319602272727272  C 14.6788116591928 0.379261363636362  14.7494394618834 0.477272727272727  14.7729820627803 0.613636363636363  C 14.7965246636771 0.758522727272727  14.7612107623318 0.882102272727272  14.6670403587444 0.984375  L 14.0902466367713 1.61079545454545  C 13.9803811659193 1.73011363636364  13.8548206278027 1.76420454545455  13.7135650224215 1.71306818181818  C 13.5330717488789 1.66193181818182  13.3565022421525 1.63636363636364  13.1838565022422 1.63636363636364  L 3.39013452914798 1.63636363636364  C 2.87219730941704 1.63636363636364  2.42881165919283 1.83664772727273  2.05997757847534 2.23721590909091  C 1.69114349775785 2.63778409090909  1.5067264573991 3.11931818181818  1.5067264573991 3.68181818181818  L 1.5067264573991 14.3181818181818  C 1.5067264573991 14.8806818181818  1.69114349775785 15.3622159090909  2.05997757847534 15.7627840909091  C 2.42881165919283 16.1633522727273  2.87219730941704 16.3636363636364  3.39013452914798 16.3636363636364  L 13.1838565022422 16.3636363636364  C 13.7017937219731 16.3636363636364  14.1451793721973 16.1633522727273  14.5140134529148 15.7627840909091  C 14.8828475336323 15.3622159090909  15.067264573991 14.8806818181818  15.067264573991 14.3181818181818  L 15.067264573991 12.7073863636364  C 15.067264573991 12.5965909090909  15.1025784753363 12.5028409090909  15.1732062780269 12.4261363636364  L 15.9265695067265 11.6079545454545  C 16.0442825112108 11.4801136363636  16.1816143497758 11.4502840909091  16.3385650224215 11.5184659090909  Z M 7.53363228699552 11.0454545454545  L 15.4439461883408 2.45454545454545  L 18.8340807174888 6.13636363636364  L 10.9237668161435 14.7272727272727  L 7.53363228699552 14.7272727272727  L 7.53363228699552 11.0454545454545  Z M 21 3.27272727272727  C 21 3.61363636363636  20.890134529148 3.90340909090909  20.6704035874439 4.14204545454545  L 19.5874439461883 5.31818181818182  L 16.1973094170404 1.63636363636364  L 17.280269058296 0.460227272727272  C 17.5 0.221590909090907  17.7668161434978 0.102272727272728  18.0807174887892 0.102272727272728  C 18.3946188340807 0.102272727272728  18.6614349775785 0.221590909090907  18.8811659192825 0.460227272727272  L 20.6704035874439 2.40340909090909  C 20.890134529148 2.64204545454545  21 2.93181818181818  21 3.27272727272727  Z " fill-rule="nonzero" fill="#000000" stroke="none" transform="matrix(1 0 0 1 203 91 )" />
  </g>
</svg>