<?xml version="1.0" encoding="utf-8"?>
<svg version="1.1" xmlns:xlink="http://www.w3.org/1999/xlink" width="15px" height="20px" xmlns="http://www.w3.org/2000/svg">
  <g transform="matrix(1 0 0 1 -1447 -212 )">
    <path d="M 14.4951923076923 7.17076244486452  C 14.8317307692308 7.2463768115942  15 7.43961352657005  15 7.75047258979206  C 15 7.93530770846461  14.921875 8.13694601974375  14.765625 8.35538752362949  L 11.4933894230769 12.8166351606805  L 12.2686298076923 19.1178323881537  C 12.2746394230769 19.1766435622768  12.2776442307692 19.2606595253098  12.2776442307692 19.3698802772527  C 12.2776442307692 19.5463137996219  12.24609375 19.6954421340055  12.1829927884615 19.8172652804033  C 12.1198918269231 19.9390884268011  12.0282451923077 20  11.9080528846154 20  C 11.7938701923077 20  11.6736778846154 19.9495904221802  11.5474759615385 19.8487712665406  L 7.5 16.8746061751733  L 3.45252403846154 19.8487712665406  C 3.3203125 19.9495904221802  3.20012019230769 20  3.09194711538462 20  C 2.96574519230769 20  2.87109375 19.9390884268011  2.80799278846154 19.8172652804033  C 2.74489182692308 19.6954421340055  2.71334134615385 19.5463137996219  2.71334134615385 19.3698802772527  C 2.71334134615385 19.3194706994329  2.71935096153846 19.2354547363999  2.73137019230769 19.1178323881537  L 3.50661057692308 12.8166351606805  L 0.225360576923077 8.35538752362949  C 0.0751201923076923 8.12854442344045  0 7.92690611216131  0 7.75047258979206  C 0 7.43961352657005  0.168269230769231 7.2463768115942  0.504807692307692 7.17076244486452  L 5.03004807692308 6.25078764965343  L 7.05829326923077 0.516698172652803  C 7.17247596153846 0.1722327242176  7.31971153846154 0  7.5 0  C 7.68028846153846 0  7.82752403846154 0.1722327242176  7.94170673076923 0.516698172652803  L 9.96995192307692 6.25078764965343  L 14.4951923076923 7.17076244486452  Z " fill-rule="nonzero" fill="#000000" stroke="none" transform="matrix(1 0 0 1 1447 212 )" />
  </g>
</svg>