<?xml version="1.0" encoding="utf-8"?>
<svg version="1.1" xmlns:xlink="http://www.w3.org/1999/xlink" width="27px" height="28px" xmlns="http://www.w3.org/2000/svg">
  <g transform="matrix(1 0 0 1 -472 -959 )">
    <path d="M 26.0913461538462 10.0390674228103  C 26.6971153846154 10.1449275362319  27 10.4154589371981  27 10.8506616257089  C 27 11.1094307918504  26.859375 11.3917244276412  26.578125 11.6975425330813  L 20.6881009615385 17.9432892249527  L 22.0835336538462 26.7649653434152  C 22.0943509615385 26.8473009871876  22.0997596153846 26.9649233354337  22.0997596153846 27.1178323881538  C 22.0997596153846 27.3648393194707  22.04296875 27.5736189876076  21.9293870192308 27.7441713925646  C 21.8158052884615 27.9147237975215  21.6508413461538 28  21.4344951923077 28  C 21.2289663461538 28  21.0126201923077 27.9294265910523  20.7854567307692 27.7882797731569  L 13.5 23.6244486452426  L 6.21454326923077 27.7882797731569  C 5.9765625 27.9294265910523  5.76021634615385 28  5.56550480769231 28  C 5.33834134615385 28  5.16796875 27.9147237975215  5.05438701923077 27.7441713925646  C 4.94080528846154 27.5736189876076  4.88401442307692 27.3648393194707  4.88401442307692 27.1178323881538  C 4.88401442307692 27.047258979206  4.89483173076923 26.9296366309599  4.91646634615385 26.7649653434152  L 6.31189903846154 17.9432892249527  L 0.405649038461538 11.6975425330813  C 0.135216346153846 11.3799621928166  0 11.0976685570258  0 10.8506616257089  C 0 10.4154589371981  0.302884615384615 10.1449275362319  0.908653846153846 10.0390674228103  L 9.05408653846154 8.75110270951481  L 12.7049278846154 0.723377441713924  C 12.9104567307692 0.24112581390464  13.1754807692308 0  13.5 0  C 13.8245192307692 0  14.0895432692308 0.24112581390464  14.2950721153846 0.723377441713924  L 17.9459134615385 8.75110270951481  L 26.0913461538462 10.0390674228103  Z " fill-rule="nonzero" fill="#000000" stroke="none" transform="matrix(1 0 0 1 472 959 )" />
  </g>
</svg>