<?xml version="1.0" encoding="utf-8"?>
<svg version="1.1" xmlns:xlink="http://www.w3.org/1999/xlink" width="98px" height="90px" xmlns="http://www.w3.org/2000/svg">
  <defs>
    <mask fill="white" id="clip65">
      <path d="M 108 369  C 103.56 369  100 365.44  100 361  L 100 287  C 100 282.56  103.56 279  108 279  L 190 279  C 194.44 279  198 282.56  198 287  L 198 361  C 198 365.44  194.44 369  190 369  " fill-rule="evenodd" />
    </mask>
  </defs>
  <g transform="matrix(1 0 0 1 -100 -279 )">
    <path d="M 100 279  L 198 279  L 198 369  L 100 369  L 100 279  " fill-rule="nonzero" fill="#cccccc" stroke="none" mask="url(#clip65)" />
    <path d="M 106 285  L 192 285  L 192 363  L 106 363  L 106 285  " fill-rule="nonzero" fill="#ffffff" stroke="none" mask="url(#clip65)" />
    <path d="M 157.71 306  C 153.93 306  150.96 303.03  150.96 299.25  C 150.96 295.47  153.93 292.5  157.71 292.5  C 161.49 292.5  164.46 295.47  164.46 299.25  C 164.46 303.03  161.49 306  157.71 306  " fill-rule="nonzero" fill="#cccccc" stroke="none" mask="url(#clip65)" />
    <path d="M 109 361  L 109 320.85  L 129.25 302.6  L 157.6 320.775510204082  L 173.8 313.55  L 190 320.775510204082  L 190 361  L 109 361  " fill-rule="nonzero" fill="#169bd5" stroke="none" mask="url(#clip65)" />
  </g>
</svg>