<?xml version="1.0" encoding="utf-8"?>
<svg version="1.1" xmlns:xlink="http://www.w3.org/1999/xlink" width="4px" height="14px" xmlns="http://www.w3.org/2000/svg">
  <g transform="matrix(1 0 0 1 -416 -189 )">
    <path d="M 3.70833333333333 10.4602272727273  C 3.90277777777778 10.6458333333333  4 10.8712121212121  4 11.1363636363636  L 4 13.0454545454545  C 4 13.3106060606061  3.90277777777778 13.5359848484848  3.70833333333333 13.7215909090909  C 3.51388888888889 13.907196969697  3.27777777777778 14  3 14  L 1 14  C 0.722222222222222 14  0.486111111111111 13.907196969697  0.291666666666667 13.7215909090909  C 0.0972222222222222 13.5359848484848  0 13.3106060606061  0 13.0454545454545  L 0 11.1363636363636  C 0 10.8712121212121  0.0972222222222222 10.6458333333333  0.291666666666667 10.4602272727273  C 0.486111111111111 10.2746212121212  0.722222222222222 10.1818181818182  1 10.1818181818182  L 3 10.1818181818182  C 3.27777777777778 10.1818181818182  3.51388888888889 10.2746212121212  3.70833333333333 10.4602272727273  Z M 3.70833333333333 5.36931818181818  C 3.90277777777778 5.55492424242424  4 5.78030303030303  4 6.04545454545454  L 4 7.95454545454545  C 4 8.21969696969697  3.90277777777778 8.44507575757576  3.70833333333333 8.63068181818182  C 3.51388888888889 8.81628787878788  3.27777777777778 8.90909090909091  3 8.90909090909091  L 1 8.90909090909091  C 0.722222222222222 8.90909090909091  0.486111111111111 8.81628787878788  0.291666666666667 8.63068181818182  C 0.0972222222222222 8.44507575757576  0 8.21969696969697  0 7.95454545454545  L 0 6.04545454545454  C 0 5.78030303030303  0.0972222222222222 5.55492424242424  0.291666666666667 5.36931818181818  C 0.486111111111111 5.18371212121212  0.722222222222222 5.09090909090909  1 5.09090909090909  L 3 5.09090909090909  C 3.27777777777778 5.09090909090909  3.51388888888889 5.18371212121212  3.70833333333333 5.36931818181818  Z M 3.70833333333333 0.278409090909091  C 3.90277777777778 0.464015151515151  4 0.689393939393939  4 0.954545454545455  L 4 2.86363636363636  C 4 3.12878787878788  3.90277777777778 3.35416666666667  3.70833333333333 3.53977272727273  C 3.51388888888889 3.72537878787879  3.27777777777778 3.81818181818182  3 3.81818181818182  L 1 3.81818181818182  C 0.722222222222222 3.81818181818182  0.486111111111111 3.72537878787879  0.291666666666667 3.53977272727273  C 0.0972222222222222 3.35416666666667  0 3.12878787878788  0 2.86363636363636  L 0 0.954545454545455  C 0 0.689393939393939  0.0972222222222222 0.464015151515151  0.291666666666667 0.278409090909091  C 0.486111111111111 0.0928030303030298  0.722222222222222 0  1 0  L 3 0  C 3.27777777777778 0  3.51388888888889 0.0928030303030298  3.70833333333333 0.278409090909091  Z " fill-rule="nonzero" fill="#d7d7d7" stroke="none" transform="matrix(1 0 0 1 416 189 )" />
  </g>
</svg>