<?xml version="1.0" encoding="utf-8"?>
<svg version="1.1" xmlns:xlink="http://www.w3.org/1999/xlink" width="18px" height="16px" xmlns="http://www.w3.org/2000/svg">
  <g transform="matrix(1 0 0 1 -558 -183 )">
    <path d="M 16.6188616071429 14.7723214285714  C 16.6824776785714 14.7157738095238  16.7142857142857 14.6488095238095  16.7142857142857 14.5714285714286  L 16.7142857142857 4.85714285714286  C 16.7142857142857 4.7797619047619  16.6824776785714 4.71279761904762  16.6188616071429 4.65625  C 16.5552455357143 4.59970238095238  16.4799107142857 4.57142857142857  16.3928571428571 4.57142857142857  L 5.46428571428571 4.57142857142857  C 5.37723214285714 4.57142857142857  5.30189732142857 4.59970238095238  5.23828125 4.65625  C 5.17466517857143 4.71279761904762  5.14285714285714 4.7797619047619  5.14285714285714 4.85714285714286  L 5.14285714285714 14.5714285714286  C 5.14285714285714 14.6488095238095  5.17466517857143 14.7157738095238  5.23828125 14.7723214285714  C 5.30189732142857 14.828869047619  5.37723214285714 14.8571428571429  5.46428571428571 14.8571428571429  L 16.3928571428571 14.8571428571429  C 16.4799107142857 14.8571428571429  16.5552455357143 14.828869047619  16.6188616071429 14.7723214285714  Z M 17.5279017857143 3.84821428571429  C 17.8426339285714 4.12797619047619  18 4.46428571428571  18 4.85714285714286  L 18 14.5714285714286  C 18 14.9642857142857  17.8426339285714 15.3005952380952  17.5279017857143 15.5803571428571  C 17.2131696428571 15.860119047619  16.8348214285714 16  16.3928571428571 16  L 5.46428571428571 16  C 5.02232142857143 16  4.64397321428571 15.860119047619  4.32924107142857 15.5803571428571  C 4.01450892857143 15.3005952380952  3.85714285714286 14.9642857142857  3.85714285714286 14.5714285714286  L 3.85714285714286 4.85714285714286  C 3.85714285714286 4.46428571428571  4.01450892857143 4.12797619047619  4.32924107142857 3.84821428571429  C 4.64397321428571 3.56845238095238  5.02232142857143 3.42857142857143  5.46428571428571 3.42857142857143  L 16.3928571428571 3.42857142857143  C 16.8348214285714 3.42857142857143  17.2131696428571 3.56845238095238  17.5279017857143 3.84821428571429  Z M 13.6707589285714 0.419642857142858  C 13.9854910714286 0.699404761904761  14.1428571428571 1.03571428571429  14.1428571428571 1.42857142857143  L 14.1428571428571 2.85714285714286  L 12.8571428571429 2.85714285714286  L 12.8571428571429 1.42857142857143  C 12.8571428571429 1.35119047619048  12.8253348214286 1.28422619047619  12.76171875 1.22767857142857  C 12.6981026785714 1.17113095238095  12.6227678571429 1.14285714285714  12.5357142857143 1.14285714285714  L 1.60714285714286 1.14285714285714  C 1.52008928571429 1.14285714285714  1.44475446428571 1.17113095238095  1.38113839285714 1.22767857142857  C 1.31752232142857 1.28422619047619  1.28571428571429 1.35119047619048  1.28571428571429 1.42857142857143  L 1.28571428571429 11.1428571428571  C 1.28571428571429 11.2202380952381  1.31752232142857 11.2872023809524  1.38113839285714 11.34375  C 1.44475446428571 11.4002976190476  1.52008928571429 11.4285714285714  1.60714285714286 11.4285714285714  L 3.21428571428571 11.4285714285714  L 3.21428571428571 12.5714285714286  L 1.60714285714286 12.5714285714286  C 1.16517857142857 12.5714285714286  0.786830357142857 12.4315476190476  0.472098214285714 12.1517857142857  C 0.157366071428571 11.8720238095238  0 11.5357142857143  0 11.1428571428571  L 0 1.42857142857143  C 0 1.03571428571429  0.157366071428571 0.699404761904761  0.472098214285714 0.419642857142858  C 0.786830357142857 0.139880952380953  1.16517857142857 0  1.60714285714286 0  L 12.5357142857143 0  C 12.9776785714286 0  13.3560267857143 0.139880952380953  13.6707589285714 0.419642857142858  Z " fill-rule="nonzero" fill="#000000" stroke="none" transform="matrix(1 0 0 1 558 183 )" />
  </g>
</svg>