<?xml version="1.0" encoding="utf-8"?>
<svg version="1.1" xmlns:xlink="http://www.w3.org/1999/xlink" width="12px" height="12px" viewBox="272 565  12 12" xmlns="http://www.w3.org/2000/svg">
  <path d="M 278 565  C 281.36 565  284 567.64  284 571  C 284 574.36  281.36 577  278 577  C 274.64 577  272 574.36  272 571  C 272 567.64  274.64 565  278 565  Z " fill-rule="nonzero" fill="#ffffff" stroke="none" />
  <path d="M 278 565.5  C 281.08 565.5  283.5 567.92  283.5 571  C 283.5 574.08  281.08 576.5  278 576.5  C 274.92 576.5  272.5 574.08  272.5 571  C 272.5 567.92  274.92 565.5  278 565.5  Z " stroke-width="1" stroke="#797979" fill="none" />
  <path d="M 278 574  C 276.32 574  275 572.68  275 571  C 275 569.32  276.32 568  278 568  C 279.68 568  281 569.32  281 571  C 281 572.68  279.68 574  278 574  " fill-rule="nonzero" fill="#797979" stroke="none" />
</svg>