<?xml version="1.0" encoding="utf-8"?>
<svg version="1.1" xmlns:xlink="http://www.w3.org/1999/xlink" width="12px" height="12px" viewBox="971 565  12 12" xmlns="http://www.w3.org/2000/svg">
  <path d="M 977 565  C 980.36 565  983 567.64  983 571  C 983 574.36  980.36 577  977 577  C 973.64 577  971 574.36  971 571  C 971 567.64  973.64 565  977 565  Z " fill-rule="nonzero" fill="#ffffff" stroke="none" />
  <path d="M 977 565.5  C 980.08 565.5  982.5 567.92  982.5 571  C 982.5 574.08  980.08 576.5  977 576.5  C 973.92 576.5  971.5 574.08  971.5 571  C 971.5 567.92  973.92 565.5  977 565.5  Z " stroke-width="1" stroke="#797979" fill="none" />
  <path d="M 977 574  C 975.32 574  974 572.68  974 571  C 974 569.32  975.32 568  977 568  C 978.68 568  980 569.32  980 571  C 980 572.68  978.68 574  977 574  " fill-rule="nonzero" fill="#797979" stroke="none" />
</svg>