<?xml version="1.0" encoding="utf-8"?>
<svg version="1.1" xmlns:xlink="http://www.w3.org/1999/xlink" width="12px" height="12px" viewBox="1071 565  12 12" xmlns="http://www.w3.org/2000/svg">
  <path d="M 1077 565  C 1080.36 565  1083 567.64  1083 571  C 1083 574.36  1080.36 577  1077 577  C 1073.64 577  1071 574.36  1071 571  C 1071 567.64  1073.64 565  1077 565  Z " fill-rule="nonzero" fill="#ffffff" stroke="none" />
  <path d="M 1077 565.5  C 1080.08 565.5  1082.5 567.92  1082.5 571  C 1082.5 574.08  1080.08 576.5  1077 576.5  C 1073.92 576.5  1071.5 574.08  1071.5 571  C 1071.5 567.92  1073.92 565.5  1077 565.5  Z " stroke-width="1" stroke="#797979" fill="none" />
  <path d="M 1077 574  C 1075.32 574  1074 572.68  1074 571  C 1074 569.32  1075.32 568  1077 568  C 1078.68 568  1080 569.32  1080 571  C 1080 572.68  1078.68 574  1077 574  " fill-rule="nonzero" fill="#797979" stroke="none" />
</svg>