<?xml version="1.0" encoding="utf-8"?>
<svg version="1.1" xmlns:xlink="http://www.w3.org/1999/xlink" width="16px" height="13px" xmlns="http://www.w3.org/2000/svg">
  <g transform="matrix(1 0 0 1 -227 -597 )">
    <path d="M 13.1875 6.88932291666667  C 13.3125 6.78776041666667  13.375 6.66080729166667  13.375 6.50846354166667  C 13.375 6.35611979166667  13.3125 6.22916666666667  13.1875 6.12760416666667  L 12.2395833333333 5.357421875  C 12.1145833333333 5.255859375  11.9583333333333 5.205078125  11.7708333333333 5.205078125  C 11.5833333333333 5.205078125  11.4270833333333 5.255859375  11.3020833333333 5.357421875  L 9.33333333333333 6.95703125  L 9.33333333333333 2.70833333333333  C 9.33333333333333 2.56163194444444  9.26736111111111 2.43467881944444  9.13541666666667 2.32747395833333  C 9.00347222222222 2.22026909722222  8.84722222222222 2.16666666666667  8.66666666666667 2.16666666666667  L 7.33333333333333 2.16666666666667  C 7.15277777777778 2.16666666666667  6.99652777777778 2.22026909722222  6.86458333333333 2.32747395833333  C 6.73263888888889 2.43467881944444  6.66666666666667 2.56163194444444  6.66666666666667 2.70833333333333  L 6.66666666666667 6.95703125  L 4.69791666666667 5.357421875  C 4.56597222222222 5.25021701388889  4.40972222222222 5.19661458333333  4.22916666666667 5.19661458333333  C 4.04861111111111 5.19661458333333  3.89236111111111 5.25021701388889  3.76041666666667 5.357421875  L 2.8125 6.12760416666667  C 2.6875 6.22916666666667  2.625 6.35611979166667  2.625 6.50846354166667  C 2.625 6.66080729166667  2.6875 6.78776041666667  2.8125 6.88932291666667  L 6.58333333333333 9.953125  L 7.53125 10.7233072916667  C 7.65625 10.8248697916667  7.8125 10.8756510416667  8 10.8756510416667  C 8.1875 10.8756510416667  8.34375 10.8248697916667  8.46875 10.7233072916667  L 9.41666666666667 9.953125  L 13.1875 6.88932291666667  Z M 14.9270833333333 3.2373046875  C 15.6423611111111 4.23318142361111  16 5.32074652777778  16 6.5  C 16 7.67925347222222  15.6423611111111 8.76681857638889  14.9270833333333 9.7626953125  C 14.2118055555556 10.7585720486111  13.2413194444444 11.5470920138889  12.015625 12.1282552083333  C 10.7899305555556 12.7094184027778  9.45138888888889 13  8 13  C 6.54861111111111 13  5.21006944444444 12.7094184027778  3.984375 12.1282552083333  C 2.75868055555556 11.5470920138889  1.78819444444444 10.7585720486111  1.07291666666667 9.7626953125  C 0.357638888888889 8.76681857638889  0 7.67925347222222  0 6.5  C 0 5.32074652777778  0.357638888888889 4.23318142361111  1.07291666666667 3.2373046875  C 1.78819444444444 2.24142795138889  2.75868055555556 1.45290798611111  3.984375 0.871744791666666  C 5.21006944444444 0.290581597222221  6.54861111111111 0  8 0  C 9.45138888888889 0  10.7899305555556 0.290581597222221  12.015625 0.871744791666666  C 13.2413194444444 1.45290798611111  14.2118055555556 2.24142795138889  14.9270833333333 3.2373046875  Z " fill-rule="nonzero" fill="#000000" stroke="none" transform="matrix(1 0 0 1 227 597 )" />
  </g>
</svg>