<?xml version="1.0" encoding="utf-8"?>
<svg version="1.1" xmlns:xlink="http://www.w3.org/1999/xlink" width="89px" height="74px" xmlns="http://www.w3.org/2000/svg">
  <g transform="matrix(1 0 0 1 -154 -760 )">
    <path d="M 154 760  L 243 760  L 243 834  L 154 834  L 154 760  " fill-rule="nonzero" fill="#cccccc" stroke="none" />
    <path d="M 159 765  L 238 765  L 238 829  L 159 829  L 159 765  " fill-rule="nonzero" fill="#ffffff" stroke="none" />
    <path d="M 205.83 782.2  C 202.722 782.2  200.28 779.758  200.28 776.65  C 200.28 773.542  202.722 771.1  205.83 771.1  C 208.938 771.1  211.38 773.542  211.38 776.65  C 211.38 779.758  208.938 782.2  205.83 782.2  " fill-rule="nonzero" fill="#cccccc" stroke="none" />
    <path d="M 161 827  L 161 794  L 179.75 779  L 206 797.067415730337  L 221 788  L 236 797.067415730337  L 236 827  L 161 827  " fill-rule="nonzero" fill="#169bd5" stroke="none" />
  </g>
</svg>