<?xml version="1.0" encoding="utf-8"?>
<svg version="1.1" xmlns:xlink="http://www.w3.org/1999/xlink" width="16px" height="15px" xmlns="http://www.w3.org/2000/svg">
  <g transform="matrix(1 0 0 1 -838 -1942 )">
    <path d="M 5.71590909090909 12.412109375  C 5.78409090909091 12.353515625  5.81818181818182 12.2786458333333  5.81818181818182 12.1875  L 5.81818181818182 5.3125  C 5.81818181818182 5.22135416666667  5.78409090909091 5.146484375  5.71590909090909 5.087890625  C 5.64772727272727 5.029296875  5.56060606060606 5  5.45454545454545 5  L 4.72727272727273 5  C 4.62121212121212 5  4.53409090909091 5.029296875  4.46590909090909 5.087890625  C 4.39772727272727 5.146484375  4.36363636363636 5.22135416666667  4.36363636363636 5.3125  L 4.36363636363636 12.1875  C 4.36363636363636 12.2786458333333  4.39772727272727 12.353515625  4.46590909090909 12.412109375  C 4.53409090909091 12.470703125  4.62121212121212 12.5  4.72727272727273 12.5  L 5.45454545454545 12.5  C 5.56060606060606 12.5  5.64772727272727 12.470703125  5.71590909090909 12.412109375  Z M 8.625 12.412109375  C 8.69318181818182 12.353515625  8.72727272727273 12.2786458333333  8.72727272727273 12.1875  L 8.72727272727273 5.3125  C 8.72727272727273 5.22135416666667  8.69318181818182 5.146484375  8.625 5.087890625  C 8.55681818181818 5.029296875  8.46969696969697 5  8.36363636363636 5  L 7.63636363636364 5  C 7.53030303030303 5  7.44318181818182 5.029296875  7.375 5.087890625  C 7.30681818181818 5.146484375  7.27272727272727 5.22135416666667  7.27272727272727 5.3125  L 7.27272727272727 12.1875  C 7.27272727272727 12.2786458333333  7.30681818181818 12.353515625  7.375 12.412109375  C 7.44318181818182 12.470703125  7.53030303030303 12.5  7.63636363636364 12.5  L 8.36363636363636 12.5  C 8.46969696969697 12.5  8.55681818181818 12.470703125  8.625 12.412109375  Z M 11.5340909090909 12.412109375  C 11.6022727272727 12.353515625  11.6363636363636 12.2786458333333  11.6363636363636 12.1875  L 11.6363636363636 5.3125  C 11.6363636363636 5.22135416666667  11.6022727272727 5.146484375  11.5340909090909 5.087890625  C 11.4659090909091 5.029296875  11.3787878787879 5  11.2727272727273 5  L 10.5454545454545 5  C 10.4393939393939 5  10.3522727272727 5.029296875  10.2840909090909 5.087890625  C 10.2159090909091 5.146484375  10.1818181818182 5.22135416666667  10.1818181818182 5.3125  L 10.1818181818182 12.1875  C 10.1818181818182 12.2786458333333  10.2159090909091 12.353515625  10.2840909090909 12.412109375  C 10.3522727272727 12.470703125  10.4393939393939 12.5  10.5454545454545 12.5  L 11.2727272727273 12.5  C 11.3787878787879 12.5  11.4659090909091 12.470703125  11.5340909090909 12.412109375  Z M 6.01136363636364 1.357421875  L 5.45454545454545 2.5  L 10.5454545454545 2.5  L 10 1.357421875  C 9.9469696969697 1.298828125  9.88257575757576 1.26302083333333  9.80681818181818 1.25  L 6.20454545454545 1.25  C 6.12878787878788 1.26302083333333  6.06439393939394 1.298828125  6.01136363636364 1.357421875  Z M 15.8977272727273 2.587890625  C 15.9659090909091 2.646484375  16 2.72135416666667  16 2.8125  L 16 3.4375  C 16 3.52864583333333  15.9659090909091 3.603515625  15.8977272727273 3.662109375  C 15.8295454545455 3.720703125  15.7424242424242 3.75  15.6363636363636 3.75  L 14.5454545454545 3.75  L 14.5454545454545 13.0078125  C 14.5454545454545 13.5481770833333  14.3674242424242 14.0152994791667  14.0113636363636 14.4091796875  C 13.655303030303 14.8030598958333  13.2272727272727 15  12.7272727272727 15  L 3.27272727272727 15  C 2.77272727272727 15  2.34469696969697 14.8095703125  1.98863636363636 14.4287109375  C 1.63257575757576 14.0478515625  1.45454545454545 13.5872395833333  1.45454545454545 13.046875  L 1.45454545454545 3.75  L 0.363636363636364 3.75  C 0.257575757575758 3.75  0.170454545454545 3.720703125  0.102272727272727 3.662109375  C 0.0340909090909091 3.603515625  0 3.52864583333333  0 3.4375  L 0 2.8125  C 0 2.72135416666667  0.0340909090909091 2.646484375  0.102272727272727 2.587890625  C 0.170454545454545 2.529296875  0.257575757575758 2.5  0.363636363636364 2.5  L 3.875 2.5  L 4.67045454545455 0.869140625000001  C 4.78409090909091 0.628255208333332  4.98863636363636 0.423177083333332  5.28409090909091 0.253906250000001  C 5.57954545454546 0.0846354166666657  5.87878787878788 0  6.18181818181818 0  L 9.81818181818182 0  C 10.1212121212121 0  10.4204545454545 0.0846354166666657  10.7159090909091 0.253906250000001  C 11.0113636363636 0.423177083333332  11.2159090909091 0.628255208333332  11.3295454545455 0.869140625000001  L 12.125 2.5  L 15.6363636363636 2.5  C 15.7424242424242 2.5  15.8295454545455 2.529296875  15.8977272727273 2.587890625  Z " fill-rule="nonzero" fill="#ffffff" stroke="none" transform="matrix(1 0 0 1 838 1942 )" />
  </g>
</svg>