<?xml version="1.0" encoding="utf-8"?>
<svg version="1.1" xmlns:xlink="http://www.w3.org/1999/xlink" width="15px" height="25px" xmlns="http://www.w3.org/2000/svg">
  <g transform="matrix(1 0 0 1 -310 -595 )">
    <path d="M 15 12.5  C 15 12.7688172043011  14.9083011583012 13.0014474772539  14.7249034749035 13.1978908188586  L 3.98166023166023 24.7053349875931  C 3.79826254826255 24.9017783291977  3.58108108108108 25  3.33011583011583 25  C 3.07915057915058 25  2.86196911196911 24.9017783291977  2.67857142857143 24.7053349875931  L 0.275096525096525 22.1308933002481  C 0.0916988416988418 21.9344499586435  0 21.7018196856907  0 21.4330024813896  C 0 21.1641852770885  0.0916988416988418 20.9315550041356  0.275096525096525 20.735111662531  L 7.96332046332046 12.5  L 0.275096525096525 4.26488833746898  C 0.0916988416988418 4.06844499586435  0 3.8358147229115  0 3.56699751861042  C 0 3.29818031430934  0.0916988416988418 3.06555004135649  0.275096525096525 2.86910669975186  L 2.67857142857143 0.294665012406947  C 2.86196911196911 0.0982216708023148  3.07915057915058 0  3.33011583011583 0  C 3.58108108108108 0  3.79826254826255 0.0982216708023148  3.98166023166023 0.294665012406947  L 14.7249034749035 11.8021091811414  C 14.9083011583012 11.9985525227461  15 12.2311827956989  15 12.5  Z " fill-rule="nonzero" fill="#000000" stroke="none" transform="matrix(1 0 0 1 310 595 )" />
  </g>
</svg>