<?xml version="1.0" encoding="utf-8"?>
<svg version="1.1" xmlns:xlink="http://www.w3.org/1999/xlink" width="12px" height="14px" xmlns="http://www.w3.org/2000/svg">
  <g transform="matrix(1 0 0 1 -1066 -166 )">
    <path d="M 11.074570645419 13.7940481800426  C 10.9255716463957 13.893380830522  10.730380128063 13.9430471635299  10.5351886097303 13.9430471635299  C 10.3399970913974 13.9430471635299  10.1448055730647 13.893380830522  9.9958065740413 13.7940481800426  L 0.332764939186745 7.35202042347299  C 0.0347669877486396 7.15351410466974  0.0347669877486396 6.8313507102273  0.332764939186745 6.63286028497868  L 9.9958065740413 0.190816619318184  C 10.2938045254794 -0.00784868164060981  10.7765488303445 -0.00784868164060981  11.0745467817828 0.190816619318184  C 11.372544733221 0.389322938121438  11.372544733221 0.711486332563936  11.0745467817828 0.909976757812501  L 1.95088718261718 6.99243239968041  L 11.074570645419 13.0748880415483  C 11.3725685968573 13.2733943603516  11.3725685968573 13.595557754794  11.074570645419 13.7940481800426  Z " fill-rule="nonzero" fill="#1989fa" stroke="none" transform="matrix(1 0 0 1 1066 166 )" />
  </g>
</svg>