<?xml version="1.0" encoding="utf-8"?>
<svg version="1.1" xmlns:xlink="http://www.w3.org/1999/xlink" width="30px" height="30px" xmlns="http://www.w3.org/2000/svg">
  <g transform="matrix(1 0 0 1 -118 -513 )">
    <path d="M 133 513  C 141.4 513  148 519.6  148 528  C 148 536.4  141.4 543  133 543  C 124.6 543  118 536.4  118 528  C 118 519.6  124.6 513  133 513  Z " fill-rule="nonzero" fill="#ffffff" stroke="none" />
    <path d="M 133 513.5  C 141.12 513.5  147.5 519.88  147.5 528  C 147.5 536.12  141.12 542.5  133 542.5  C 124.88 542.5  118.5 536.12  118.5 528  C 118.5 519.88  124.88 513.5  133 513.5  Z " stroke-width="1" stroke="#797979" fill="none" />
  </g>
</svg>