<?xml version="1.0" encoding="utf-8"?>
<svg version="1.1" xmlns:xlink="http://www.w3.org/1999/xlink" width="119px" height="140px" xmlns="http://www.w3.org/2000/svg">
  <g transform="matrix(1 0 0 1 -159 -271 )">
    <path d="M 33 44.5454545454546  L 33 64  L 86 64  L 86 44.5454545454546  C 85.9444444444444 37.5189393939394  83.3619791666667 31.5198863636364  78.1970486111111 26.5482954545454  C 73.0321180555556 21.5767045454546  66.7997685185185 19.0909090909091  59.5 19.0909090909091  C 52.2002314814815 19.0909090909091  45.9678819444444 21.5767045454546  40.8029513888889 26.5482954545454  C 35.6380208333333 31.5198863636364  33.0555555555556 37.5189393939394  33 44.5454545454546  Z M 116.107638888889 66.4204545454545  C 118.03587962963 68.2765151515152  119 70.530303030303  119 73.1818181818182  L 119 130.454545454545  C 119 133.106060606061  118.03587962963 135.359848484848  116.107638888889 137.215909090909  C 114.179398148148 139.07196969697  111.837962962963 140  109.083333333333 140  L 9.91666666666667 140  C 7.16203703703704 140  4.82060185185185 139.07196969697  2.89236111111111 137.215909090909  C 0.96412037037037 135.359848484848  0 133.106060606061  0 130.454545454545  L 0 73.1818181818182  C 0 70.530303030303  0.96412037037037 68.2765151515152  2.89236111111111 66.4204545454545  C 4.82060185185185 64.5643939393939  7.16203703703704 63.6363636363636  9.91666666666667 63.6363636363636  L 14 63.6363636363636  L 14 44.5454545454546  C 13.2222222222222 32.3484848484848  17.7673611111111 21.875  26.8576388888889 13.125  C 35.9479166666667 4.375  46.8287037037037 0  59.5 0  C 72.1712962962963 0  83.0520833333333 4.375  92.1423611111111 13.125  C 101.232638888889 21.875  105.777777777778 32.3484848484848  105 44.5454545454546  L 105 63.6363636363636  L 109.083333333333 63.6363636363636  C 111.837962962963 63.6363636363636  114.179398148148 64.5643939393939  116.107638888889 66.4204545454545  Z " fill-rule="nonzero" fill="#000000" stroke="none" transform="matrix(1 0 0 1 159 271 )" />
  </g>
</svg>