<?xml version="1.0" encoding="utf-8"?>
<svg version="1.1" xmlns:xlink="http://www.w3.org/1999/xlink" width="17px" height="20px" xmlns="http://www.w3.org/2000/svg">
  <g transform="matrix(1 0 0 1 -532 -105 )">
    <path d="M 15.6889750810103 19.7057831143466  C 15.4778931657272 19.8476869007457  15.2013718480892 19.9186388050427  14.9248505304512 19.9186388050427  C 14.648329212813 19.9186388050427  14.371807895175 19.8476869007457  14.1607259798918 19.7057831143466  L 0.471416997181223 10.5028863192471  C 0.0492532326439061 10.2193058638139  0.0492532326439061 9.75907244318185  0.471416997181223 9.47551469282668  L 14.1607259798918 0.272595170454549  C 14.5828897444292 -0.0112124023437283  15.2667775096547 -0.0112124023437283  15.6889412741923 0.272595170454549  C 16.1111050387298 0.556175625887769  16.1111050387298 1.01640904651991  15.6889412741923 1.299966796875  L 2.763756842041 9.98918914240059  L 15.6889750810103 18.6784114879262  C 16.1111388455479 18.9619919433594  16.1111388455479 19.4222253639915  15.6889750810103 19.7057831143466  Z " fill-rule="nonzero" fill="#000000" stroke="none" transform="matrix(1 0 0 1 532 105 )" />
  </g>
</svg>