<?xml version="1.0" encoding="utf-8"?>
<svg version="1.1" xmlns:xlink="http://www.w3.org/1999/xlink" width="12px" height="12px" viewBox="1849 2592  12 12" xmlns="http://www.w3.org/2000/svg">
  <path d="M 1855 2592  C 1858.36 2592  1861 2594.64  1861 2598  C 1861 2601.36  1858.36 2604  1855 2604  C 1851.64 2604  1849 2601.36  1849 2598  C 1849 2594.64  1851.64 2592  1855 2592  Z " fill-rule="nonzero" fill="#f0f0f0" stroke="none" />
  <path d="M 1855 2592.5  C 1858.08 2592.5  1860.5 2594.92  1860.5 2598  C 1860.5 2601.08  1858.08 2603.5  1855 2603.5  C 1851.92 2603.5  1849.5 2601.08  1849.5 2598  C 1849.5 2594.92  1851.92 2592.5  1855 2592.5  Z " stroke-width="1" stroke="#797979" fill="none" />
  <path d="M 1855 2601  C 1853.32 2601  1852 2599.68  1852 2598  C 1852 2596.32  1853.32 2595  1855 2595  C 1856.68 2595  1858 2596.32  1858 2598  C 1858 2599.68  1856.68 2601  1855 2601  " fill-rule="nonzero" fill="#797979" stroke="none" />
</svg>