<?xml version="1.0" encoding="utf-8"?>
<svg version="1.1" xmlns:xlink="http://www.w3.org/1999/xlink" width="12px" height="12px" viewBox="1703 2592  12 12" xmlns="http://www.w3.org/2000/svg">
  <path d="M 1709 2592  C 1712.36 2592  1715 2594.64  1715 2598  C 1715 2601.36  1712.36 2604  1709 2604  C 1705.64 2604  1703 2601.36  1703 2598  C 1703 2594.64  1705.64 2592  1709 2592  Z " fill-rule="nonzero" fill="#ffffff" stroke="none" />
  <path d="M 1709 2592.5  C 1712.08 2592.5  1714.5 2594.92  1714.5 2598  C 1714.5 2601.08  1712.08 2603.5  1709 2603.5  C 1705.92 2603.5  1703.5 2601.08  1703.5 2598  C 1703.5 2594.92  1705.92 2592.5  1709 2592.5  Z " stroke-width="1" stroke="#797979" fill="none" />
  <path d="M 1709 2601  C 1707.32 2601  1706 2599.68  1706 2598  C 1706 2596.32  1707.32 2595  1709 2595  C 1710.68 2595  1712 2596.32  1712 2598  C 1712 2599.68  1710.68 2601  1709 2601  " fill-rule="nonzero" fill="#797979" stroke="none" />
</svg>