<?xml version="1.0" encoding="utf-8"?>
<svg version="1.1" xmlns:xlink="http://www.w3.org/1999/xlink" width="12px" height="12px" viewBox="1704 1456  12 12" xmlns="http://www.w3.org/2000/svg">
  <path d="M 1710 1456  C 1713.36 1456  1716 1458.64  1716 1462  C 1716 1465.36  1713.36 1468  1710 1468  C 1706.64 1468  1704 1465.36  1704 1462  C 1704 1458.64  1706.64 1456  1710 1456  Z " fill-rule="nonzero" fill="#ffffff" stroke="none" />
  <path d="M 1710 1456.5  C 1713.08 1456.5  1715.5 1458.92  1715.5 1462  C 1715.5 1465.08  1713.08 1467.5  1710 1467.5  C 1706.92 1467.5  1704.5 1465.08  1704.5 1462  C 1704.5 1458.92  1706.92 1456.5  1710 1456.5  Z " stroke-width="1" stroke="#797979" fill="none" />
  <path d="M 1710 1465  C 1708.32 1465  1707 1463.68  1707 1462  C 1707 1460.32  1708.32 1459  1710 1459  C 1711.68 1459  1713 1460.32  1713 1462  C 1713 1463.68  1711.68 1465  1710 1465  " fill-rule="nonzero" fill="#797979" stroke="none" />
</svg>