<?xml version="1.0" encoding="utf-8"?>
<svg version="1.1" xmlns:xlink="http://www.w3.org/1999/xlink" width="12px" height="12px" viewBox="1846 2634  12 12" xmlns="http://www.w3.org/2000/svg">
  <path d="M 1852 2634  C 1855.36 2634  1858 2636.64  1858 2640  C 1858 2643.36  1855.36 2646  1852 2646  C 1848.64 2646  1846 2643.36  1846 2640  C 1846 2636.64  1848.64 2634  1852 2634  Z " fill-rule="nonzero" fill="#ffffff" stroke="none" />
  <path d="M 1852 2634.5  C 1855.08 2634.5  1857.5 2636.92  1857.5 2640  C 1857.5 2643.08  1855.08 2645.5  1852 2645.5  C 1848.92 2645.5  1846.5 2643.08  1846.5 2640  C 1846.5 2636.92  1848.92 2634.5  1852 2634.5  Z " stroke-width="1" stroke="#797979" fill="none" />
  <path d="M 1852 2643  C 1850.32 2643  1849 2641.68  1849 2640  C 1849 2638.32  1850.32 2637  1852 2637  C 1853.68 2637  1855 2638.32  1855 2640  C 1855 2641.68  1853.68 2643  1852 2643  " fill-rule="nonzero" fill="#797979" stroke="none" />
</svg>