<?xml version="1.0" encoding="utf-8"?>
<svg version="1.1" xmlns:xlink="http://www.w3.org/1999/xlink" width="12px" height="12px" viewBox="1700 2634  12 12" xmlns="http://www.w3.org/2000/svg">
  <path d="M 1706 2634  C 1709.36 2634  1712 2636.64  1712 2640  C 1712 2643.36  1709.36 2646  1706 2646  C 1702.64 2646  1700 2643.36  1700 2640  C 1700 2636.64  1702.64 2634  1706 2634  Z " fill-rule="nonzero" fill="#f0f0f0" stroke="none" />
  <path d="M 1706 2634.5  C 1709.08 2634.5  1711.5 2636.92  1711.5 2640  C 1711.5 2643.08  1709.08 2645.5  1706 2645.5  C 1702.92 2645.5  1700.5 2643.08  1700.5 2640  C 1700.5 2636.92  1702.92 2634.5  1706 2634.5  Z " stroke-width="1" stroke="#797979" fill="none" />
  <path d="M 1706 2643  C 1704.32 2643  1703 2641.68  1703 2640  C 1703 2638.32  1704.32 2637  1706 2637  C 1707.68 2637  1709 2638.32  1709 2640  C 1709 2641.68  1707.68 2643  1706 2643  " fill-rule="nonzero" fill="#797979" stroke="none" />
</svg>