<?xml version="1.0" encoding="utf-8"?>
<svg version="1.1" xmlns:xlink="http://www.w3.org/1999/xlink" width="12px" height="12px" viewBox="652 2542  12 12" xmlns="http://www.w3.org/2000/svg">
  <path d="M 658 2542  C 661.36 2542  664 2544.64  664 2548  C 664 2551.36  661.36 2554  658 2554  C 654.64 2554  652 2551.36  652 2548  C 652 2544.64  654.64 2542  658 2542  Z " fill-rule="nonzero" fill="#f0f0f0" stroke="none" />
  <path d="M 658 2542.5  C 661.08 2542.5  663.5 2544.92  663.5 2548  C 663.5 2551.08  661.08 2553.5  658 2553.5  C 654.92 2553.5  652.5 2551.08  652.5 2548  C 652.5 2544.92  654.92 2542.5  658 2542.5  Z " stroke-width="1" stroke="#797979" fill="none" />
  <path d="M 658 2551  C 656.32 2551  655 2549.68  655 2548  C 655 2546.32  656.32 2545  658 2545  C 659.68 2545  661 2546.32  661 2548  C 661 2549.68  659.68 2551  658 2551  " fill-rule="nonzero" fill="#797979" stroke="none" />
</svg>