<?xml version="1.0" encoding="utf-8"?>
<svg version="1.1" xmlns:xlink="http://www.w3.org/1999/xlink" width="12px" height="12px" viewBox="652 3612  12 12" xmlns="http://www.w3.org/2000/svg">
  <path d="M 658 3612  C 661.36 3612  664 3614.64  664 3618  C 664 3621.36  661.36 3624  658 3624  C 654.64 3624  652 3621.36  652 3618  C 652 3614.64  654.64 3612  658 3612  Z " fill-rule="nonzero" fill="#ffffff" stroke="none" />
  <path d="M 658 3612.5  C 661.08 3612.5  663.5 3614.92  663.5 3618  C 663.5 3621.08  661.08 3623.5  658 3623.5  C 654.92 3623.5  652.5 3621.08  652.5 3618  C 652.5 3614.92  654.92 3612.5  658 3612.5  Z " stroke-width="1" stroke="#797979" fill="none" />
  <path d="M 658 3621  C 656.32 3621  655 3619.68  655 3618  C 655 3616.32  656.32 3615  658 3615  C 659.68 3615  661 3616.32  661 3618  C 661 3619.68  659.68 3621  658 3621  " fill-rule="nonzero" fill="#797979" stroke="none" />
</svg>