<?xml version="1.0" encoding="utf-8"?>
<svg version="1.1" xmlns:xlink="http://www.w3.org/1999/xlink" width="20px" height="20px" preserveAspectRatio="xMinYMid meet" viewBox="3115 1334  20 18" xmlns="http://www.w3.org/2000/svg">
  <path d="M 3142 1343  L 3126 1343  " stroke-width="2" stroke-dasharray="6,2" stroke="#02a7f0" fill="none" />
  <path d="M 3142 1339  A 3.5 3.5 0 0 0 3138.5 1342.5 A 3.5 3.5 0 0 0 3142 1346 A 3.5 3.5 0 0 0 3145.5 1342.5 A 3.5 3.5 0 0 0 3142 1339 Z M 3142 1341  A 1.5 1.5 0 0 1 3143.5 1342.5 A 1.5 1.5 0 0 1 3142 1344 A 1.5 1.5 0 0 1 3140.5 1342.5 A 1.5 1.5 0 0 1 3142 1341 Z M 3127 1335.4  L 3120 1343  L 3127 1350.6  L 3127 1335.4  Z M 3125 1340.2  L 3125 1345.8  L 3123 1343  L 3125 1340.2  Z " fill-rule="nonzero" fill="#02a7f0" stroke="none" />
</svg>